<svg xmlns="http://www.w3.org/2000/svg" version="1.1" xmlns:xlink="http://www.w3.org/1999/xlink" xmlns:svgjs="http://svgjs.dev/svgjs" width="1500" height="939" viewBox="0 0 1500 939"><g transform="matrix(1,0,0,1,-0.9090909090909918,-1.5145161290323017)"><svg viewBox="0 0 396 248" data-background-color="#000000" preserveAspectRatio="xMidYMid meet" height="939" width="1500" xmlns="http://www.w3.org/2000/svg" xmlns:xlink="http://www.w3.org/1999/xlink"><g id="tight-bounds" transform="matrix(1,0,0,1,0.2400000000000091,0.4000000000000057)"><svg viewBox="0 0 395.52 247.2" height="247.2" width="395.52"><rect width="395.52" height="247.2" fill="url(#9779571a-0c89-4e05-bcf6-7029d75c6e9d)" mask="url(#e2a5529c-d4b1-4781-8330-5b268a43d4ae)" data-fill-palette-color="tertiary"></rect><g><svg></svg></g><g><svg viewBox="0 0 395.52 247.2" height="247.2" width="395.52"><g transform="matrix(1,0,0,1,97.09722043095323,47.215199999999996)"><svg viewBox="0 0 201.32555913809352 152.7696" height="152.7696" width="201.32555913809352"><g><svg viewBox="0 0 201.32555913809352 152.7696" height="152.7696" width="201.32555913809352"><g><svg viewBox="0 0 102.13864218077474 152.7696" height="152.7696" width="102.13864218077474"><g id="textblocktransform"><svg viewBox="0 0 102.13864218077474 152.7696" height="152.7696" width="102.13864218077474" id="textblock"><g><svg viewBox="0 0 102.13864218077474 152.7696" height="152.7696" width="102.13864218077474"><g transform="matrix(1,0,0,1,0,0)"><svg width="102.13864218077474" viewBox="1.5 -34.85 23.3 34.85" height="152.7696" data-palette-color="url(#94a52cf7-6f28-4afa-a7fa-aa4a6b991a41)"></svg></g></svg></g></svg></g></svg></g><g transform="matrix(1,0,0,1,138.20387827037473,44.8239595661406)"><svg viewBox="0 0 63.12168086771879 63.12168086771879" height="63.12168086771879" width="63.12168086771879"><g data-palette-color="url(#60d686a4-cb60-499d-8c44-c29d526fe828)"></g></svg></g></svg></g></svg></g><g><path d="M224.263 0c68.262 0 123.6 55.338 123.6 123.6 0 68.262-55.338 123.6-123.6 123.6-30.402 0-58.24-10.976-79.768-29.183l11.147 0c19.26 14.022 42.974 22.294 68.621 22.295 25.647 0 49.361-8.272 68.621-22.295h1.973v-1.468c28.025-21.318 46.117-55.02 46.117-92.949 0-37.928-18.092-71.631-46.117-92.949v-1.468l-1.973 0c-19.26-14.022-42.974-22.294-68.621-22.295-25.647 0-49.361 8.272-68.621 22.295l-11.147 0c21.528-18.206 49.366-29.183 79.768-29.183z" fill="url(#9779571a-0c89-4e05-bcf6-7029d75c6e9d)" stroke="transparent" data-fill-palette-color="tertiary"></path></g></svg></g><defs></defs><mask id="9d50f7ad-5e72-4c18-bef3-7034f19d223b"><g id="SvgjsG4701"><svg viewBox="0 0 395.52 247.2" height="247.2" width="395.52"><g><svg></svg></g><g><svg viewBox="0 0 395.52 247.2" height="247.2" width="395.52"><g transform="matrix(1,0,0,1,97.09722043095323,47.215199999999996)"><svg viewBox="0 0 201.32555913809352 152.7696" height="152.7696" width="201.32555913809352"><g><svg viewBox="0 0 201.32555913809352 152.7696" height="152.7696" width="201.32555913809352"><g><svg viewBox="0 0 102.13864218077474 152.7696" height="152.7696" width="102.13864218077474"><g id="SvgjsG4700"><svg viewBox="0 0 102.13864218077474 152.7696" height="152.7696" width="102.13864218077474" id="SvgjsSvg4699"><g><svg viewBox="0 0 102.13864218077474 152.7696" height="152.7696" width="102.13864218077474"><g transform="matrix(1,0,0,1,0,0)"><svg width="102.13864218077474" viewBox="1.5 -34.85 23.3 34.85" height="152.7696" data-palette-color="url(#94a52cf7-6f28-4afa-a7fa-aa4a6b991a41)"><path d="M24.15 0L1.5 0 15.38-29.45 3.15-29.45 3.15-34.85 24.8-34.85 11.1-5.4 24.15-5.4 24.15 0Z" opacity="1" transform="matrix(1,0,0,1,0,0)" fill="white" class="wordmark-text-0" id="SvgjsPath4698"></path></svg></g></svg></g></svg></g></svg></g><g transform="matrix(1,0,0,1,138.20387827037473,44.8239595661406)"><svg viewBox="0 0 63.12168086771879 63.12168086771879" height="63.12168086771879" width="63.12168086771879"><g data-palette-color="url(#60d686a4-cb60-499d-8c44-c29d526fe828)"><rect width="17.253259437176467" height="63.12168086771879" fill="black" stroke="transparent" x="0" fill-opacity="1"></rect><rect width="17.253259437176467" height="63.12168086771879" fill="black" stroke="transparent" x="21.040560289239593" fill-opacity="0.75"></rect><rect width="17.253259437176467" height="63.12168086771879" fill="black" stroke="transparent" x="42.08112057847919" fill-opacity="0.5"></rect></g></svg></g></svg></g></svg></g><g><path d="M224.263 0c68.262 0 123.6 55.338 123.6 123.6 0 68.262-55.338 123.6-123.6 123.6-30.402 0-58.24-10.976-79.768-29.183l11.147 0c19.26 14.022 42.974 22.294 68.621 22.295 25.647 0 49.361-8.272 68.621-22.295h1.973v-1.468c28.025-21.318 46.117-55.02 46.117-92.949 0-37.928-18.092-71.631-46.117-92.949v-1.468l-1.973 0c-19.26-14.022-42.974-22.294-68.621-22.295-25.647 0-49.361 8.272-68.621 22.295l-11.147 0c21.528-18.206 49.366-29.183 79.768-29.183z" fill="black" stroke="transparent"></path></g></svg></g><defs><mask></mask></defs></svg><rect width="395.52" height="247.2" fill="black" stroke="none" visibility="hidden"></rect></g></mask><linearGradient x1="0" x2="1" y1="0.5" y2="0.5" id="94a52cf7-6f28-4afa-a7fa-aa4a6b991a41"><stop stop-color="#f00b51" offset="0"></stop><stop stop-color="#730062" offset="1"></stop></linearGradient><rect width="395.52" height="247.2" fill="url(#94a52cf7-6f28-4afa-a7fa-aa4a6b991a41)" mask="url(#9d50f7ad-5e72-4c18-bef3-7034f19d223b)" data-fill-palette-color="primary"></rect><mask id="bbb3a39e-2708-4cfd-86e8-6c1bc3c96432"><g id="SvgjsG4716"><svg viewBox="0 0 395.52 247.2" height="247.2" width="395.52"><g><svg></svg></g><g><svg viewBox="0 0 395.52 247.2" height="247.2" width="395.52"><g transform="matrix(1,0,0,1,97.09722043095323,47.215199999999996)"><svg viewBox="0 0 201.32555913809352 152.7696" height="152.7696" width="201.32555913809352"><g><svg viewBox="0 0 201.32555913809352 152.7696" height="152.7696" width="201.32555913809352"><g><svg viewBox="0 0 102.13864218077474 152.7696" height="152.7696" width="102.13864218077474"><g id="SvgjsG4715"><svg viewBox="0 0 102.13864218077474 152.7696" height="152.7696" width="102.13864218077474" id="SvgjsSvg4714"><g><svg viewBox="0 0 102.13864218077474 152.7696" height="152.7696" width="102.13864218077474"><g transform="matrix(1,0,0,1,0,0)"><svg width="102.13864218077474" viewBox="1.5 -34.85 23.3 34.85" height="152.7696" data-palette-color="url(#94a52cf7-6f28-4afa-a7fa-aa4a6b991a41)"></svg></g></svg></g></svg></g></svg></g><g transform="matrix(1,0,0,1,138.20387827037473,44.8239595661406)"><svg viewBox="0 0 63.12168086771879 63.12168086771879" height="63.12168086771879" width="63.12168086771879"><g data-palette-color="url(#60d686a4-cb60-499d-8c44-c29d526fe828)"><rect width="17.253259437176467" height="63.12168086771879" fill="white" stroke="transparent" x="0" fill-opacity="1"></rect><rect width="17.253259437176467" height="63.12168086771879" fill="white" stroke="transparent" x="21.040560289239593" fill-opacity="0.75"></rect><rect width="17.253259437176467" height="63.12168086771879" fill="white" stroke="transparent" x="42.08112057847919" fill-opacity="0.5"></rect></g></svg></g></svg></g></svg></g><g><path d="M224.263 0c68.262 0 123.6 55.338 123.6 123.6 0 68.262-55.338 123.6-123.6 123.6-30.402 0-58.24-10.976-79.768-29.183l11.147 0c19.26 14.022 42.974 22.294 68.621 22.295 25.647 0 49.361-8.272 68.621-22.295h1.973v-1.468c28.025-21.318 46.117-55.02 46.117-92.949 0-37.928-18.092-71.631-46.117-92.949v-1.468l-1.973 0c-19.26-14.022-42.974-22.294-68.621-22.295-25.647 0-49.361 8.272-68.621 22.295l-11.147 0c21.528-18.206 49.366-29.183 79.768-29.183z" fill="black" stroke="transparent"></path></g></svg></g><defs><mask></mask></defs><mask><g id="SvgjsG4713"><svg viewBox="0 0 395.52 247.2" height="247.2" width="395.52"><g><svg></svg></g><g><svg viewBox="0 0 395.52 247.2" height="247.2" width="395.52"><g transform="matrix(1,0,0,1,97.09722043095323,47.215199999999996)"><svg viewBox="0 0 201.32555913809352 152.7696" height="152.7696" width="201.32555913809352"><g><svg viewBox="0 0 201.32555913809352 152.7696" height="152.7696" width="201.32555913809352"><g><svg viewBox="0 0 102.13864218077474 152.7696" height="152.7696" width="102.13864218077474"><g id="SvgjsG4712"><svg viewBox="0 0 102.13864218077474 152.7696" height="152.7696" width="102.13864218077474" id="SvgjsSvg4711"><g><svg viewBox="0 0 102.13864218077474 152.7696" height="152.7696" width="102.13864218077474"><g transform="matrix(1,0,0,1,0,0)"><svg width="102.13864218077474" viewBox="1.5 -34.85 23.3 34.85" height="152.7696" data-palette-color="url(#94a52cf7-6f28-4afa-a7fa-aa4a6b991a41)"><path d="M24.15 0L1.5 0 15.38-29.45 3.15-29.45 3.15-34.85 24.8-34.85 11.1-5.4 24.15-5.4 24.15 0Z" opacity="1" transform="matrix(1,0,0,1,0,0)" fill="black" class="wordmark-text-0" id="SvgjsPath4710"></path></svg></g></svg></g></svg></g></svg></g><g transform="matrix(1,0,0,1,138.20387827037473,44.8239595661406)"><svg viewBox="0 0 63.12168086771879 63.12168086771879" height="63.12168086771879" width="63.12168086771879"><g data-palette-color="url(#60d686a4-cb60-499d-8c44-c29d526fe828)"><rect width="17.253259437176467" height="63.12168086771879" fill="black" stroke="transparent" x="0" fill-opacity="1"></rect><rect width="17.253259437176467" height="63.12168086771879" fill="black" stroke="transparent" x="21.040560289239593" fill-opacity="0.75"></rect><rect width="17.253259437176467" height="63.12168086771879" fill="black" stroke="transparent" x="42.08112057847919" fill-opacity="0.5"></rect></g></svg></g></svg></g></svg></g><g><path d="M224.263 0c68.262 0 123.6 55.338 123.6 123.6 0 68.262-55.338 123.6-123.6 123.6-30.402 0-58.24-10.976-79.768-29.183l11.147 0c19.26 14.022 42.974 22.294 68.621 22.295 25.647 0 49.361-8.272 68.621-22.295h1.973v-1.468c28.025-21.318 46.117-55.02 46.117-92.949 0-37.928-18.092-71.631-46.117-92.949v-1.468l-1.973 0c-19.26-14.022-42.974-22.294-68.621-22.295-25.647 0-49.361 8.272-68.621 22.295l-11.147 0c21.528-18.206 49.366-29.183 79.768-29.183z" fill="black" stroke="transparent"></path></g></svg></g><defs><mask></mask></defs></svg><rect width="395.52" height="247.2" fill="black" stroke="none" visibility="hidden"></rect></g></mask></svg><rect width="395.52" height="247.2" fill="black" stroke="none" visibility="hidden"></rect></g></mask><linearGradient x1="0" x2="1" y1="0.5" y2="0.5" id="60d686a4-cb60-499d-8c44-c29d526fe828"><stop stop-color="#f00b51" offset="0"></stop><stop stop-color="#730062" offset="1"></stop></linearGradient><rect width="395.52" height="247.2" fill="url(#60d686a4-cb60-499d-8c44-c29d526fe828)" mask="url(#bbb3a39e-2708-4cfd-86e8-6c1bc3c96432)" data-fill-palette-color="accent"></rect><mask id="e2a5529c-d4b1-4781-8330-5b268a43d4ae"><g id="SvgjsG4730"><svg viewBox="0 0 395.52 247.2" height="247.2" width="395.52"><g><svg></svg></g><g><svg viewBox="0 0 395.52 247.2" height="247.2" width="395.52"><g transform="matrix(1,0,0,1,97.09722043095323,47.215199999999996)"><svg viewBox="0 0 201.32555913809352 152.7696" height="152.7696" width="201.32555913809352"><g><svg viewBox="0 0 201.32555913809352 152.7696" height="152.7696" width="201.32555913809352"><g><svg viewBox="0 0 102.13864218077474 152.7696" height="152.7696" width="102.13864218077474"><g id="SvgjsG4729"><svg viewBox="0 0 102.13864218077474 152.7696" height="152.7696" width="102.13864218077474" id="SvgjsSvg4728"><g><svg viewBox="0 0 102.13864218077474 152.7696" height="152.7696" width="102.13864218077474"><g transform="matrix(1,0,0,1,0,0)"><svg width="102.13864218077474" viewBox="1.5 -34.85 23.3 34.85" height="152.7696" data-palette-color="url(#94a52cf7-6f28-4afa-a7fa-aa4a6b991a41)"></svg></g></svg></g></svg></g></svg></g><g transform="matrix(1,0,0,1,138.20387827037473,44.8239595661406)"><svg viewBox="0 0 63.12168086771879 63.12168086771879" height="63.12168086771879" width="63.12168086771879"><g data-palette-color="url(#60d686a4-cb60-499d-8c44-c29d526fe828)"></g></svg></g></svg></g></svg></g><g><path d="M224.263 0c68.262 0 123.6 55.338 123.6 123.6 0 68.262-55.338 123.6-123.6 123.6-30.402 0-58.24-10.976-79.768-29.183l11.147 0c19.26 14.022 42.974 22.294 68.621 22.295 25.647 0 49.361-8.272 68.621-22.295h1.973v-1.468c28.025-21.318 46.117-55.02 46.117-92.949 0-37.928-18.092-71.631-46.117-92.949v-1.468l-1.973 0c-19.26-14.022-42.974-22.294-68.621-22.295-25.647 0-49.361 8.272-68.621 22.295l-11.147 0c21.528-18.206 49.366-29.183 79.768-29.183z" fill="white" stroke="transparent"></path></g></svg></g><defs><mask></mask></defs><mask><g id="SvgjsG4727"><svg viewBox="0 0 395.52 247.2" height="247.2" width="395.52"><g><svg></svg></g><g><svg viewBox="0 0 395.52 247.2" height="247.2" width="395.52"><g transform="matrix(1,0,0,1,97.09722043095323,47.215199999999996)"><svg viewBox="0 0 201.32555913809352 152.7696" height="152.7696" width="201.32555913809352"><g><svg viewBox="0 0 201.32555913809352 152.7696" height="152.7696" width="201.32555913809352"><g><svg viewBox="0 0 102.13864218077474 152.7696" height="152.7696" width="102.13864218077474"><g id="SvgjsG4726"><svg viewBox="0 0 102.13864218077474 152.7696" height="152.7696" width="102.13864218077474" id="SvgjsSvg4725"><g><svg viewBox="0 0 102.13864218077474 152.7696" height="152.7696" width="102.13864218077474"><g transform="matrix(1,0,0,1,0,0)"><svg width="102.13864218077474" viewBox="1.5 -34.85 23.3 34.85" height="152.7696" data-palette-color="url(#94a52cf7-6f28-4afa-a7fa-aa4a6b991a41)"><path d="M24.15 0L1.5 0 15.38-29.45 3.15-29.45 3.15-34.85 24.8-34.85 11.1-5.4 24.15-5.4 24.15 0Z" opacity="1" transform="matrix(1,0,0,1,0,0)" fill="black" class="wordmark-text-0" id="SvgjsPath4724"></path></svg></g></svg></g></svg></g></svg></g><g transform="matrix(1,0,0,1,138.20387827037473,44.8239595661406)"><svg viewBox="0 0 63.12168086771879 63.12168086771879" height="63.12168086771879" width="63.12168086771879"><g data-palette-color="url(#60d686a4-cb60-499d-8c44-c29d526fe828)"><rect width="17.253259437176467" height="63.12168086771879" fill="black" stroke="transparent" x="0" fill-opacity="1"></rect><rect width="17.253259437176467" height="63.12168086771879" fill="black" stroke="transparent" x="21.040560289239593" fill-opacity="0.75"></rect><rect width="17.253259437176467" height="63.12168086771879" fill="black" stroke="transparent" x="42.08112057847919" fill-opacity="0.5"></rect></g></svg></g></svg></g></svg></g><g><path d="M224.263 0c68.262 0 123.6 55.338 123.6 123.6 0 68.262-55.338 123.6-123.6 123.6-30.402 0-58.24-10.976-79.768-29.183l11.147 0c19.26 14.022 42.974 22.294 68.621 22.295 25.647 0 49.361-8.272 68.621-22.295h1.973v-1.468c28.025-21.318 46.117-55.02 46.117-92.949 0-37.928-18.092-71.631-46.117-92.949v-1.468l-1.973 0c-19.26-14.022-42.974-22.294-68.621-22.295-25.647 0-49.361 8.272-68.621 22.295l-11.147 0c21.528-18.206 49.366-29.183 79.768-29.183z" fill="black" stroke="transparent"></path></g></svg></g><defs><mask></mask></defs></svg><rect width="395.52" height="247.2" fill="black" stroke="none" visibility="hidden"></rect></g></mask><mask><g id="SvgjsG4723"><svg viewBox="0 0 395.52 247.2" height="247.2" width="395.52"><g><svg></svg></g><g><svg viewBox="0 0 395.52 247.2" height="247.2" width="395.52"><g transform="matrix(1,0,0,1,97.09722043095323,47.215199999999996)"><svg viewBox="0 0 201.32555913809352 152.7696" height="152.7696" width="201.32555913809352"><g><svg viewBox="0 0 201.32555913809352 152.7696" height="152.7696" width="201.32555913809352"><g><svg viewBox="0 0 102.13864218077474 152.7696" height="152.7696" width="102.13864218077474"><g id="SvgjsG4722"><svg viewBox="0 0 102.13864218077474 152.7696" height="152.7696" width="102.13864218077474" id="SvgjsSvg4721"><g><svg viewBox="0 0 102.13864218077474 152.7696" height="152.7696" width="102.13864218077474"><g transform="matrix(1,0,0,1,0,0)"><svg width="102.13864218077474" viewBox="1.5 -34.85 23.3 34.85" height="152.7696" data-palette-color="url(#94a52cf7-6f28-4afa-a7fa-aa4a6b991a41)"></svg></g></svg></g></svg></g></svg></g><g transform="matrix(1,0,0,1,138.20387827037473,44.8239595661406)"><svg viewBox="0 0 63.12168086771879 63.12168086771879" height="63.12168086771879" width="63.12168086771879"><g data-palette-color="url(#60d686a4-cb60-499d-8c44-c29d526fe828)"><rect width="17.253259437176467" height="63.12168086771879" fill="black" stroke="transparent" x="0" fill-opacity="1"></rect><rect width="17.253259437176467" height="63.12168086771879" fill="black" stroke="transparent" x="21.040560289239593" fill-opacity="0.75"></rect><rect width="17.253259437176467" height="63.12168086771879" fill="black" stroke="transparent" x="42.08112057847919" fill-opacity="0.5"></rect></g></svg></g></svg></g></svg></g><g><path d="M224.263 0c68.262 0 123.6 55.338 123.6 123.6 0 68.262-55.338 123.6-123.6 123.6-30.402 0-58.24-10.976-79.768-29.183l11.147 0c19.26 14.022 42.974 22.294 68.621 22.295 25.647 0 49.361-8.272 68.621-22.295h1.973v-1.468c28.025-21.318 46.117-55.02 46.117-92.949 0-37.928-18.092-71.631-46.117-92.949v-1.468l-1.973 0c-19.26-14.022-42.974-22.294-68.621-22.295-25.647 0-49.361 8.272-68.621 22.295l-11.147 0c21.528-18.206 49.366-29.183 79.768-29.183z" fill="black" stroke="transparent"></path></g></svg></g><defs><mask></mask></defs><mask><g id="SvgjsG4720"><svg viewBox="0 0 395.52 247.2" height="247.2" width="395.52"><g><svg></svg></g><g><svg viewBox="0 0 395.52 247.2" height="247.2" width="395.52"><g transform="matrix(1,0,0,1,97.09722043095323,47.215199999999996)"><svg viewBox="0 0 201.32555913809352 152.7696" height="152.7696" width="201.32555913809352"><g><svg viewBox="0 0 201.32555913809352 152.7696" height="152.7696" width="201.32555913809352"><g><svg viewBox="0 0 102.13864218077474 152.7696" height="152.7696" width="102.13864218077474"><g id="SvgjsG4719"><svg viewBox="0 0 102.13864218077474 152.7696" height="152.7696" width="102.13864218077474" id="SvgjsSvg4718"><g><svg viewBox="0 0 102.13864218077474 152.7696" height="152.7696" width="102.13864218077474"><g transform="matrix(1,0,0,1,0,0)"><svg width="102.13864218077474" viewBox="1.5 -34.85 23.3 34.85" height="152.7696" data-palette-color="url(#94a52cf7-6f28-4afa-a7fa-aa4a6b991a41)"><path d="M24.15 0L1.5 0 15.38-29.45 3.15-29.45 3.15-34.85 24.8-34.85 11.1-5.4 24.15-5.4 24.15 0Z" opacity="1" transform="matrix(1,0,0,1,0,0)" fill="black" class="wordmark-text-0" id="SvgjsPath4717"></path></svg></g></svg></g></svg></g></svg></g><g transform="matrix(1,0,0,1,138.20387827037473,44.8239595661406)"><svg viewBox="0 0 63.12168086771879 63.12168086771879" height="63.12168086771879" width="63.12168086771879"><g data-palette-color="url(#60d686a4-cb60-499d-8c44-c29d526fe828)"><rect width="17.253259437176467" height="63.12168086771879" fill="black" stroke="transparent" x="0" fill-opacity="1"></rect><rect width="17.253259437176467" height="63.12168086771879" fill="black" stroke="transparent" x="21.040560289239593" fill-opacity="0.75"></rect><rect width="17.253259437176467" height="63.12168086771879" fill="black" stroke="transparent" x="42.08112057847919" fill-opacity="0.5"></rect></g></svg></g></svg></g></svg></g><g><path d="M224.263 0c68.262 0 123.6 55.338 123.6 123.6 0 68.262-55.338 123.6-123.6 123.6-30.402 0-58.24-10.976-79.768-29.183l11.147 0c19.26 14.022 42.974 22.294 68.621 22.295 25.647 0 49.361-8.272 68.621-22.295h1.973v-1.468c28.025-21.318 46.117-55.02 46.117-92.949 0-37.928-18.092-71.631-46.117-92.949v-1.468l-1.973 0c-19.26-14.022-42.974-22.294-68.621-22.295-25.647 0-49.361 8.272-68.621 22.295l-11.147 0c21.528-18.206 49.366-29.183 79.768-29.183z" fill="black" stroke="transparent"></path></g></svg></g><defs><mask></mask></defs></svg><rect width="395.52" height="247.2" fill="black" stroke="none" visibility="hidden"></rect></g></mask></svg><rect width="395.52" height="247.2" fill="black" stroke="none" visibility="hidden"></rect></g></mask></svg><rect width="395.52" height="247.2" fill="black" stroke="none" visibility="hidden"></rect></g></mask><linearGradient x1="0" x2="1" y1="0.5" y2="0.5" id="9779571a-0c89-4e05-bcf6-7029d75c6e9d"><stop stop-color="#f00b51" offset="0"></stop><stop stop-color="#730062" offset="1"></stop></linearGradient></svg><rect width="395.52" height="247.2" fill="none" stroke="none" visibility="hidden"></rect></g></svg></g></svg>